<?xml version="1.0" standalone="no"?><!DOCTYPE svg PUBLIC "-//W3C//DTD SVG 1.1//EN" "http://www.w3.org/Graphics/SVG/1.1/DTD/svg11.dtd"><svg t="1701311636034" class="icon" viewBox="0 0 1024 1024" version="1.1" xmlns="http://www.w3.org/2000/svg" p-id="3185" width="64" height="64" xmlns:xlink="http://www.w3.org/1999/xlink"><path d="M546.985666 477.451212V240.909371a236.610068 236.610068 0 0 1 45.916544-143.037199 226.239615 226.239615 0 0 1 129.153074-88.694662 233.198734 233.198734 0 0 1 227.604148 57.03749 221.736655 221.736655 0 0 1 69.147723 125.707627 238.145168 238.145168 0 0 1-197.41385 281.844345 254.96304 254.96304 0 0 1-41.208904 3.411333c-76.072729 0.238793-152.043119 0-228.115849 0z m-69.898216 0H242.183049A240.089627 240.089627 0 0 1 6.391701 290.885402a237.906374 237.906374 0 0 1 76.311523-232.209448 236.746521 236.746521 0 0 1 318.175043 7.436706 239.032114 239.032114 0 0 1 72.968416 138.090766 232.175335 232.175335 0 0 1 3.206653 36.978851c0.238793 77.437263 0 154.772185 0 232.209448z m0 69.795876v235.381988a234.188021 234.188021 0 0 1-61.608677 162.072438 228.559321 228.559321 0 0 1-135.839286 75.458689 231.970655 231.970655 0 0 1-212.628396-70.137009A224.056362 224.056362 0 0 1 5.300074 832.809787a230.367328 230.367328 0 0 1 52.807438-201.91681 236.132481 236.132481 0 0 1 139.864659-79.313496 252.438653 252.438653 0 0 1 46.257678-4.19594h227.740601z m69.898216 2.729067h236.917088a238.315734 238.315734 0 0 1 132.837313 38.343384 224.636288 224.636288 0 0 1 98.109941 133.860713 239.236794 239.236794 0 0 1-169.236238 293.715785 216.483202 216.483202 0 0 1-79.177042 6.822666 236.030141 236.030141 0 0 1-196.561016-136.453326 218.871135 218.871135 0 0 1-21.764306-77.437263 253.93964 253.93964 0 0 1-1.12574-25.721452q-0.170567-114.518454 0-229.139248v-4.093599z m0 0" fill="#FFFFFF" p-id="3186"></path></svg>