<?xml version="1.0" standalone="no"?><!DOCTYPE svg PUBLIC "-//W3C//DTD SVG 1.1//EN" "http://www.w3.org/Graphics/SVG/1.1/DTD/svg11.dtd"><svg t="1701311617653" class="icon" viewBox="0 0 1024 1024" version="1.1" xmlns="http://www.w3.org/2000/svg" p-id="2391" width="64" height="64" xmlns:xlink="http://www.w3.org/1999/xlink"><path d="M951.815336 249.587542c33.181805-49.684381 88.673001-147.829713 53.839268-205.274818A73.564538 73.564538 0 0 0 956.459595 9.600737C910.992167 0.18928 852.691259 28.118094 780.70226 76.15174a508.985009 508.985009 0 0 0-268.647289-76.151048C229.718397 0.000692-0.001146 229.720235-0.001146 512.056809a515.460236 515.460236 0 0 0 10.384234 103.157217 36.644409 36.644409 0 1 0 71.80638-14.666835 441.150897 441.150897 0 0 1-8.922086-88.428315c0-241.881032 196.780037-438.721941 438.721941-438.721942a436.233306 436.233306 0 0 1 202.769472 49.622315c-102.302607 77.428189-482.418081 380.421034-690.687616 751.614422-0.305559 0.489372-0.550245 1.038423-0.794931 1.527795-23.222489 46.444978-22.305812 92.217964 2.38718 119.351847 17.416867 19.189348 52.556159 36.483275 120.879643 10.026157 54.816818-21.205322 87.879264-38.745128 107.495917-51.212176a510.159502 510.159502 0 0 0 258.014789 69.669853c282.336574 0 512.056117-229.719542 512.056117-512.056116a509.508995 509.508995 0 0 0-72.295752-262.351102zM512.054971 950.723845a436.291792 436.291792 0 0 1-239.805379-71.317008 39.627191 39.627191 0 0 0-21.51088-6.783172 31.723237 31.723237 0 0 0-24.994971 11.977676c-3.972268 3.36115-29.639229 23.155648-105.662562 52.556159-24.628538 9.533204-36.239782 8.982959-40.028237 8.310968-0.916677-4.828072-0.366432-17.903851 8.433907-35.807703 233.140372-414.827461 690.253149-742.997895 694.900989-746.298171 30.616779-21.755567 70.156838-48.950323 104.622946-66.005532C929.811502 76.700791 942.339424 81.528863 942.46117 81.528863a5.421286 5.421286 0 0 1 0.550245 0.732865c7.758336 14.605962-19.371967 82.440074-64.717648 144.651183a36.788834 36.788834 0 0 0-0.916677 41.983338 436.734614 436.734614 0 0 1 73.459502 243.105655c-0.060873 241.881032-196.84091 438.721941-438.782815 438.721941z" fill="#333333" p-id="2392"></path><path d="M580.315194 824.467079A148.991077 148.991077 0 1 1 729.307465 675.476003 149.184438 149.184438 0 0 1 580.315194 824.467079z m0-224.707657a75.656901 75.656901 0 1 0 75.656902 75.656901 75.713 75.713 0 0 0-75.656902-75.661676z" fill="#707070" p-id="2393"></path><path d="M358.725194 209.192872a49.927873 49.927873 0 1 0 49.927874-49.927873 49.927873 49.927873 0 0 0-49.927874 49.927873z" fill="#707070" p-id="2394"></path></svg>