<?xml version="1.0" standalone="no"?><!DOCTYPE svg PUBLIC "-//W3C//DTD SVG 1.1//EN" "http://www.w3.org/Graphics/SVG/1.1/DTD/svg11.dtd"><svg t="1701311627639" class="icon" viewBox="0 0 1025 1024" version="1.1" xmlns="http://www.w3.org/2000/svg" p-id="2789" width="64.0625" height="64" xmlns:xlink="http://www.w3.org/1999/xlink"><path d="M1002.55232 453.4016L572.54912 23.3984A77.4656 77.4656 0 0 0 517.55008 0.59904c-20.79744 0-40.19712 8.00256-54.99904 22.79936L32.55296 453.4016c-30.19776 30.40256-30.19776 79.60064 0 109.99808l10.79808 10.5984 104.80128 32.59904v309.00224c0 59.8016 48.59904 108.40064 108.40064 108.40064h205.59872v-203.40224a14.25408 14.25408 0 0 1 14.19776-14.19776h90.99776a14.25408 14.25408 0 0 1 14.19776 14.19776V1024h191.20128c59.8016 0 108.40064-48.59904 108.40064-108.40064v-308.59776l110.40256-32.79872 10.79808-10.79808c14.80192-14.60224 22.79936-34.2016 22.79936-54.99904 0.2048-20.80768-7.79776-40.20736-22.59456-55.00416z m-229.60128 507.19744h-127.80032v-139.8016c0-42.79808-34.80064-77.7984-77.7984-77.7984H476.35456c-42.79808 0-77.7984 34.80064-77.7984 77.7984v139.8016H256.35328c-24.80128 0-44.99968-20.1984-44.99968-44.8v-355.79904l-134.20032-41.79968a14.31552 14.31552 0 0 1 0.39936-19.79904L507.55072 68.4032a14.2336 14.2336 0 0 1 9.99936-4.1984c3.79904 0 7.3984 1.39776 9.99936 4.1984l429.99808 429.99808a14.2336 14.2336 0 0 1 4.1984 9.99936c0 3.59936-1.19808 6.99904-3.79904 9.6l-140.40064 41.6v355.99872c0.2048 24.80128-19.99872 44.99968-44.5952 44.99968z" fill="#333333" p-id="2790"></path><path d="M517.5296 463.36m-194.56 0a194.56 194.56 0 1 0 389.12 0 194.56 194.56 0 1 0-389.12 0Z" fill="#707070" p-id="2791"></path></svg>