<?xml version="1.0" standalone="no"?><!DOCTYPE svg PUBLIC "-//W3C//DTD SVG 1.1//EN" "http://www.w3.org/Graphics/SVG/1.1/DTD/svg11.dtd"><svg t="1701311607320" class="icon" viewBox="0 0 1024 1024" version="1.1" xmlns="http://www.w3.org/2000/svg" p-id="1993" width="64" height="64" xmlns:xlink="http://www.w3.org/1999/xlink"><path d="M884.053333 824.32H447.146667v-375.466667c0-121.173333 97.28-218.453333 218.453333-218.453333 121.173333 0 218.453333 97.28 218.453333 218.453333v375.466667z" fill="#707070" p-id="1994"></path><path d="M85.333333 411.306667c-1.706667 0-1.706667 0 0 0-15.36 0-25.6-11.946667-25.6-27.306667 5.12-110.933333 58.026667-211.626667 146.773334-278.186667 11.946667-8.533333 27.306667-6.826667 35.84 5.12s6.826667 27.306667-5.12 35.84C160.426667 204.8 114.346667 291.84 110.933333 387.413333c-1.706667 13.653333-11.946667 23.893333-25.6 23.893334zM938.666667 411.306667c-13.653333 0-25.6-10.24-25.6-23.893334-5.12-95.573333-51.2-182.613333-126.293334-240.64-11.946667-8.533333-13.653333-23.893333-5.12-35.84 8.533333-11.946667 23.893333-13.653333 35.84-5.12 88.746667 66.56 141.653333 168.96 146.773334 279.893334 1.706667 13.653333-10.24 25.6-25.6 25.6 1.706667 0 1.706667 0 0 0zM919.893333 853.333333H104.106667c-10.24 0-20.48-6.826667-23.893334-15.36-3.413333-10.24-1.706667-20.48 5.12-27.306666l88.746667-88.746667V467.626667c0-150.186667 97.28-279.893333 240.64-322.56v-13.653334C414.72 78.506667 457.386667 34.133333 512 34.133333s97.28 44.373333 97.28 97.28v13.653334C750.933333 187.733333 849.92 317.44 849.92 467.626667v254.293333l88.746667 88.746667c6.826667 6.826667 10.24 18.773333 5.12 27.306666-3.413333 10.24-13.653333 15.36-23.893334 15.36zM165.546667 802.133333h692.906666l-52.906666-51.2c-5.12-5.12-6.826667-11.946667-6.826667-18.773333V467.626667c0-133.12-90.453333-247.466667-220.16-278.186667-11.946667-3.413333-20.48-13.653333-20.48-25.6V131.413333C558.08 105.813333 537.6 85.333333 512 85.333333s-46.08 20.48-46.08 46.08v32.426667c0 11.946667-8.533333 22.186667-20.48 25.6-129.706667 30.72-220.16 145.066667-220.16 278.186667v264.533333c0 6.826667-3.413333 13.653333-6.826667 18.773333l-52.906666 51.2z" fill="#333333" p-id="1995"></path><path d="M512 989.866667c-88.746667 0-160.426667-71.68-160.426667-160.426667 0-13.653333 11.946667-25.6 25.6-25.6h267.946667c13.653333 0 25.6 11.946667 25.6 25.6 0 20.48-5.12 42.666667-11.946667 61.44-20.48 49.493333-63.146667 83.626667-114.346666 93.866667-10.24 3.413333-20.48 5.12-32.426667 5.12z m-105.813333-134.826667C418.133333 902.826667 460.8 938.666667 512 938.666667c8.533333 0 15.36 0 20.48-1.706667 35.84-6.826667 64.853333-30.72 78.506667-64.853333 1.706667-5.12 3.413333-11.946667 5.12-17.066667H406.186667z" fill="#2c2c2c" p-id="1996"></path></svg>