<?xml version="1.0" standalone="no"?><!DOCTYPE svg PUBLIC "-//W3C//DTD SVG 1.1//EN" "http://www.w3.org/Graphics/SVG/1.1/DTD/svg11.dtd"><svg t="1701311592518" class="icon" viewBox="0 0 1024 1024" version="1.1" xmlns="http://www.w3.org/2000/svg" p-id="1390" width="64" height="64" xmlns:xlink="http://www.w3.org/1999/xlink"><path d="M298.2 382.8a213.8 190.3 0 1 0 427.6 0 213.8 190.3 0 1 0-427.6 0Z" fill="#707070" p-id="1391"></path><path d="M512 690.4c-180.6 0-327.5-138-327.5-307.7C184.5 213.1 331.4 75 512 75s327.5 138 327.5 307.7S692.6 690.4 512 690.4z m0-596.7c-170.4 0-309 129.7-309 289.1 0 159.4 138.6 289.1 309 289.1s309-129.7 309-289.1c0-159.4-138.6-289.1-309-289.1z" fill="#333333" p-id="1392"></path><path d="M512 524.5c-57.4 0-104.1-43.7-104.1-97.5 0-5 4-9 9-9s9 4 9 9c0 22.1 9.5 42.6 26.6 57.7 16 14 37.1 21.8 59.5 21.8 48.3 0 86.2-34.9 86.2-79.5 0-5 4-9 9-9s9 4 9 9c-0.1 53.8-46.8 97.5-104.2 97.5zM779.2 947.1c-5.1 0-9.2-4.1-9.2-9.2 0-126.3-109.4-229.1-243.9-229.1-64.5 0-125.7 23.3-172.3 65.5-48.2 43.7-74.7 101.7-74.7 163.6 0 5.1-4.1 9.2-9.2 9.2s-9.2-4.1-9.2-9.2c0-136.4 117.7-247.4 262.3-247.4 144.7 0 262.3 111 262.3 247.4v2.3l0.2 2.3c0.1 0.9 0 1.5-0.9 2.4-1.2 1.3-3.2 2.2-5.4 2.2z" fill="#333333" p-id="1393"></path></svg>